<svg width="1440" height="1024" viewBox="0 0 1440 1024" fill="none" xmlns="http://www.w3.org/2000/svg">
<rect width="1440" height="1024" fill="url(#paint0_radial)"/>
<circle cx="1222" cy="113" r="2" fill="#FFF8F8"/>
<circle cx="1310" cy="246" r="2" fill="#FFF8F8"/>
<circle cx="1252" cy="416" r="2" fill="#FFF8F8"/>
<circle cx="1416" cy="562" r="2" fill="#FFF8F8"/>
<circle cx="1256" cy="671" r="2" fill="#FFF8F8"/>
<circle cx="1314" cy="759" r="2" fill="#FFF8F8"/>
<circle cx="1135" cy="873" r="2" fill="#FFF8F8"/>
<circle cx="1248" cy="938" r="2" fill="#FFF8F8"/>
<circle cx="1139" cy="759" r="2" fill="#FFF8F8"/>
<circle cx="1005" cy="997" r="2" fill="#FFF8F8"/>
<circle cx="881" cy="856" r="2" fill="#FFF8F8"/>
<circle cx="789" cy="938" r="2" fill="#FFF8F8"/>
<circle cx="632" cy="911" r="2" fill="#FFF8F8"/>
<circle cx="515" cy="997" r="2" fill="#FFF8F8"/>
<circle cx="472" cy="852" r="2" fill="#FFF8F8"/>
<circle cx="337" cy="915" r="2" fill="#FFF8F8"/>
<circle cx="243" cy="813" r="2" fill="#FFF8F8"/>
<circle cx="171" cy="954" r="2" fill="#FFF8F8"/>
<circle cx="57" cy="741" r="2" fill="#FFF8F8"/>
<circle cx="189" cy="644" r="2" fill="#FFF8F8"/>
<circle cx="61" cy="510" r="2" fill="#FFF8F8"/>
<circle cx="193" cy="445" r="2" fill="#FFF8F8"/>
<circle cx="83" cy="347" r="2" fill="#FFF8F8"/>
<circle cx="197" cy="246" r="2" fill="#FFF8F8"/>
<circle cx="57" cy="165" r="2" fill="#FFF8F8"/>
<circle cx="185" cy="136" r="2" fill="#FFF8F8"/>
<circle cx="187" cy="67" r="2" fill="#FFF8F8"/>
<circle cx="337" cy="113" r="2" fill="#FFF8F8"/>
<circle cx="476" cy="43" r="2" fill="#FFF8F8"/>
<circle cx="628" cy="132" r="2" fill="#FFF8F8"/>
<circle cx="722" cy="63" r="2" fill="#FFF8F8"/>
<circle cx="942" cy="140" r="2" fill="#FFF8F8"/>
<circle cx="980" cy="41" r="2" fill="#FFF8F8"/>
<circle cx="1099" cy="109" r="2" fill="#FFF8F8"/>
<circle cx="1182" cy="242" r="2" fill="#FFF8F8"/>
<circle cx="1341" cy="71" r="2" fill="#FFF8F8"/>
<defs>
<radialGradient id="paint0_radial" cx="0" cy="0" r="1" gradientUnits="userSpaceOnUse" gradientTransform="translate(720 512) rotate(90) scale(799 1123.59)">
<stop stop-color="#0E2256"/>
<stop offset="0.921073" stop-color="#20315E"/>
</radialGradient>
</defs>
</svg>
