<svg width="355" height="355" viewBox="0 0 355 355" fill="none" xmlns="http://www.w3.org/2000/svg">
<g filter="url(#filter0_d)">
<circle cx="177.5" cy="173.5" r="127.5" fill="url(#paint0_radial)"/>
</g>
<circle cx="177.5" cy="118.5" r="21.5" fill="#FFEBB7" style="mix-blend-mode:multiply"/>
<circle cx="148.5" cy="188.5" r="10.5" fill="#FFEBB7" style="mix-blend-mode:multiply"/>
<circle cx="154.5" cy="247.5" r="2.5" fill="#FFEBB7" style="mix-blend-mode:multiply"/>
<circle cx="204.5" cy="271.5" r="1.5" fill="#FFEBB7" style="mix-blend-mode:multiply"/>
<circle cx="84.5" cy="162.5" r="1.5" fill="#FFEBB7" style="mix-blend-mode:multiply"/>
<circle r="11" transform="matrix(-1 0 0 1 243 163)" fill="#FFEBB7" style="mix-blend-mode:multiply"/>
<circle cx="220.5" cy="216.5" r="4.5" fill="#FFEBB7" style="mix-blend-mode:multiply"/>
<circle cx="261.5" cy="235.5" r="2.5" fill="#FFEBB7" style="mix-blend-mode:multiply"/>
<circle cx="108.5" cy="139.5" r="2.5" fill="#FFEBB7" style="mix-blend-mode:multiply"/>
<circle cx="92.5" cy="211.5" r="2.5" fill="#FFEBB7" style="mix-blend-mode:multiply"/>
<circle cx="232.5" cy="88.5" r="4.5" fill="#FFEBB7" style="mix-blend-mode:multiply"/>
<circle cx="159" cy="72" r="3" fill="#FFEBB7" style="mix-blend-mode:multiply"/>
<path d="M142.285 167.995C141.725 165.23 139.45 161.66 133.605 161.66C128.985 161.66 125.17 165.09 125.17 169.255C125.17 172.965 127.69 175.45 131.47 176.22L134.97 176.955C137.105 177.41 138.295 178.705 138.295 180.315C138.295 182.24 136.755 183.745 133.78 183.745C130.21 183.745 128.355 181.365 128.11 178.775L124.19 179.895C124.575 183.465 127.48 187.525 133.78 187.525C139.45 187.525 142.565 183.85 142.565 180C142.565 176.5 140.22 173.735 135.845 172.86L132.275 172.125C130.35 171.705 129.37 170.515 129.37 168.94C129.37 167.05 131.12 165.37 133.64 165.37C136.965 165.37 138.26 167.645 138.505 169.185L142.285 167.995ZM164.64 166.14V162.185H144.305V166.14H152.355V187H156.555V166.14H164.64ZM182.769 187H187.354L177.694 162.185H172.829L163.169 187H167.614L169.924 180.77H180.424L182.769 187ZM175.174 166.735L178.954 176.885H171.394L175.174 166.735ZM203.207 187H207.967L202.367 176.78C205.832 175.94 207.967 173.245 207.967 169.71C207.967 165.51 204.992 162.185 200.197 162.185H190.677V187H194.912V177.2H197.992L203.207 187ZM194.912 173.49V165.895H199.427C202.017 165.895 203.697 167.4 203.697 169.71C203.697 171.985 202.017 173.49 199.427 173.49H194.912ZM230.265 166.14V162.185H209.93V166.14H217.98V187H222.18V166.14H230.265Z" fill="#03466B"/>
<defs>
<filter id="filter0_d" x="0" y="0" width="355" height="355" filterUnits="userSpaceOnUse" color-interpolation-filters="sRGB">
<feFlood flood-opacity="0" result="BackgroundImageFix"/>
<feColorMatrix in="SourceAlpha" type="matrix" values="0 0 0 0 0 0 0 0 0 0 0 0 0 0 0 0 0 0 127 0"/>
<feOffset dy="4"/>
<feGaussianBlur stdDeviation="25"/>
<feColorMatrix type="matrix" values="0 0 0 0 1 0 0 0 0 0.921569 0 0 0 0 0.717647 0 0 0 0.5 0"/>
<feBlend mode="normal" in2="BackgroundImageFix" result="effect1_dropShadow"/>
<feBlend mode="normal" in="SourceGraphic" in2="effect1_dropShadow" result="shape"/>
</filter>
<radialGradient id="paint0_radial" cx="0" cy="0" r="1" gradientUnits="userSpaceOnUse" gradientTransform="translate(207 146.5) rotate(127.5) scale(127.308)">
<stop stop-color="#FFEBB7"/>
<stop offset="1" stop-color="#EED596"/>
</radialGradient>
</defs>
</svg>
